<svg xmlns="http://www.w3.org/2000/svg" width="820" height="500" viewBox="0 0 820 500"><rect width="820" height="500" fill="white"/><text x="410.0" y="20" font-size="16" text-anchor="middle" font-family="sans-serif">M5 crypto: buf pool off/on (aes-128-cbc, SVM)</text><line x1="70" y1="445.0" x2="800" y2="445.0" stroke="#ddd" stroke-width="1"/><text x="64" y="449.0" font-size="10" text-anchor="end" font-family="sans-serif">0</text><line x1="70" y1="362.0" x2="800" y2="362.0" stroke="#ddd" stroke-width="1"/><text x="64" y="366.0" font-size="10" text-anchor="end" font-family="sans-serif">40</text><line x1="70" y1="279.0" x2="800" y2="279.0" stroke="#ddd" stroke-width="1"/><text x="64" y="283.0" font-size="10" text-anchor="end" font-family="sans-serif">80</text><line x1="70" y1="196.0" x2="800" y2="196.0" stroke="#ddd" stroke-width="1"/><text x="64" y="200.0" font-size="10" text-anchor="end" font-family="sans-serif">120</text><line x1="70" y1="113.0" x2="800" y2="113.0" stroke="#ddd" stroke-width="1"/><text x="64" y="117.0" font-size="10" text-anchor="end" font-family="sans-serif">160</text><line x1="70" y1="30.0" x2="800" y2="30.0" stroke="#ddd" stroke-width="1"/><text x="64" y="34.0" font-size="10" text-anchor="end" font-family="sans-serif">200</text><line x1="70.0" y1="30" x2="70.0" y2="445" stroke="#eee"/><text x="70.0" y="461" font-size="10" text-anchor="middle" font-family="sans-serif">16B</text><line x1="216.0" y1="30" x2="216.0" y2="445" stroke="#eee"/><text x="216.0" y="461" font-size="10" text-anchor="middle" font-family="sans-serif">64B</text><line x1="362.0" y1="30" x2="362.0" y2="445" stroke="#eee"/><text x="362.0" y="461" font-size="10" text-anchor="middle" font-family="sans-serif">256B</text><line x1="508.0" y1="30" x2="508.0" y2="445" stroke="#eee"/><text x="508.0" y="461" font-size="10" text-anchor="middle" font-family="sans-serif">1K</text><line x1="727.0" y1="30" x2="727.0" y2="445" stroke="#eee"/><text x="727.0" y="461" font-size="10" text-anchor="middle" font-family="sans-serif">8K</text><line x1="800.0" y1="30" x2="800.0" y2="445" stroke="#eee"/><text x="800.0" y="461" font-size="10" text-anchor="middle" font-family="sans-serif">16K</text><text x="70" y="479" font-size="11" font-family="sans-serif">blocksize</text><text x="16" y="237.5" font-size="11" font-family="sans-serif" transform="rotate(-90 16 237.5)">MB/s</text><rect x="70" y="34" width="14" height="4" fill="#1f77b4"/><text x="88" y="39" font-size="11" font-family="sans-serif">SVM-档0</text><rect x="200" y="34" width="14" height="4" fill="#8c564b"/><text x="218" y="39" font-size="11" font-family="sans-serif">SVM-档9</text><path d="M70.0,444.4 L216.0,442.9 L362.0,436.4 L508.0,411.6 L727.0,230.8 L800.0,93.3" stroke="#1f77b4" stroke-width="2" fill="none"/><circle cx="70.0" cy="444.4" r="3.5" fill="#1f77b4"/><circle cx="216.0" cy="442.9" r="3.5" fill="#1f77b4"/><circle cx="362.0" cy="436.4" r="3.5" fill="#1f77b4"/><circle cx="508.0" cy="411.6" r="3.5" fill="#1f77b4"/><circle cx="727.0" cy="230.8" r="3.5" fill="#1f77b4"/><circle cx="800.0" cy="93.3" r="3.5" fill="#1f77b4"/><path d="M70.0,444.4 L216.0,442.7 L362.0,436.1 L508.0,409.4 L727.0,203.1 L800.0,63.6" stroke="#8c564b" stroke-width="2" fill="none"/><circle cx="70.0" cy="444.4" r="3.5" fill="#8c564b"/><circle cx="216.0" cy="442.7" r="3.5" fill="#8c564b"/><circle cx="362.0" cy="436.1" r="3.5" fill="#8c564b"/><circle cx="508.0" cy="409.4" r="3.5" fill="#8c564b"/><circle cx="727.0" cy="203.1" r="3.5" fill="#8c564b"/><circle cx="800.0" cy="63.6" r="3.5" fill="#8c564b"/></svg>